<svg version="1.1" xmlns:xlink="http://www.w3.org/1999/xlink" xmlns="http://www.w3.org/2000/svg" width="512" height="512">
<line x1="185" y1="169" x2="185" y2="169" style="stroke:rgb(100,0,0);stroke-width:1" />
<line x1="185" y1="169" x2="193" y2="138" style="stroke:rgb(100,0,0);stroke-width:1" />
<line x1="193" y1="138" x2="185" y2="169" style="stroke:rgb(100,0,0);stroke-width:1" />
<line x1="185" y1="169" x2="208" y2="142" style="stroke:rgb(100,0,0);stroke-width:1" />
<line x1="208" y1="142" x2="193" y2="138" style="stroke:rgb(100,0,0);stroke-width:1" />
<line x1="193" y1="138" x2="185" y2="169" style="stroke:rgb(100,0,0);stroke-width:1" />
<line x1="208" y1="142" x2="245" y2="118" style="stroke:rgb(100,0,0);stroke-width:1" />
<line x1="245" y1="118" x2="193" y2="138" style="stroke:rgb(100,0,0);stroke-width:1" />
<line x1="193" y1="138" x2="208" y2="142" style="stroke:rgb(100,0,0);stroke-width:1" />
<line x1="193" y1="138" x2="245" y2="118" style="stroke:rgb(100,0,0);stroke-width:1" />
<line x1="245" y1="118" x2="228" y2="112" style="stroke:rgb(100,0,0);stroke-width:1" />
<line x1="228" y1="112" x2="193" y2="138" style="stroke:rgb(100,0,0);stroke-width:1" />
<line x1="273" y1="102" x2="260" y2="96" style="stroke:rgb(100,0,0);stroke-width:1" />
<line x1="260" y1="96" x2="245" y2="118" style="stroke:rgb(100,0,0);stroke-width:1" />
<line x1="245" y1="118" x2="273" y2="102" style="stroke:rgb(100,0,0);stroke-width:1" />
<line x1="245" y1="118" x2="260" y2="96" style="stroke:rgb(100,0,0);stroke-width:1" />
<line x1="260" y1="96" x2="228" y2="112" style="stroke:rgb(100,0,0);stroke-width:1" />
<line x1="228" y1="112" x2="245" y2="118" style="stroke:rgb(100,0,0);stroke-width:1" />
<line x1="193" y1="138" x2="191" y2="151" style="stroke:rgb(100,0,0);stroke-width:1" />
<line x1="191" y1="151" x2="185" y2="169" style="stroke:rgb(100,0,0);stroke-width:1" />
<line x1="185" y1="169" x2="193" y2="138" style="stroke:rgb(100,0,0);stroke-width:1" />
<line x1="185" y1="169" x2="191" y2="151" style="stroke:rgb(100,0,0);stroke-width:1" />
<line x1="191" y1="151" x2="184" y2="174" style="stroke:rgb(100,0,0);stroke-width:1" />
<line x1="184" y1="174" x2="185" y2="169" style="stroke:rgb(100,0,0);stroke-width:1" />
<line x1="193" y1="138" x2="228" y2="112" style="stroke:rgb(100,0,0);stroke-width:1" />
<line x1="228" y1="112" x2="191" y2="151" style="stroke:rgb(100,0,0);stroke-width:1" />
<line x1="191" y1="151" x2="193" y2="138" style="stroke:rgb(100,0,0);stroke-width:1" />
<line x1="191" y1="151" x2="228" y2="112" style="stroke:rgb(100,0,0);stroke-width:1" />
<line x1="228" y1="112" x2="226" y2="126" style="stroke:rgb(100,0,0);stroke-width:1" />
<line x1="226" y1="126" x2="191" y2="151" style="stroke:rgb(100,0,0);stroke-width:1" />
<line x1="260" y1="96" x2="260" y2="108" style="stroke:rgb(100,0,0);stroke-width:1" />
<line x1="260" y1="108" x2="228" y2="112" style="stroke:rgb(100,0,0);stroke-width:1" />
<line x1="228" y1="112" x2="260" y2="96" style="stroke:rgb(100,0,0);stroke-width:1" />
<line x1="228" y1="112" x2="260" y2="108" style="stroke:rgb(100,0,0);stroke-width:1" />
<line x1="260" y1="108" x2="226" y2="126" style="stroke:rgb(100,0,0);stroke-width:1" />
<line x1="226" y1="126" x2="228" y2="112" style="stroke:rgb(100,0,0);stroke-width:1" />
<line x1="191" y1="151" x2="208" y2="160" style="stroke:rgb(100,0,0);stroke-width:1" />
<line x1="208" y1="160" x2="184" y2="174" style="stroke:rgb(100,0,0);stroke-width:1" />
<line x1="184" y1="174" x2="191" y2="151" style="stroke:rgb(100,0,0);stroke-width:1" />
<line x1="184" y1="174" x2="208" y2="160" style="stroke:rgb(100,0,0);stroke-width:1" />
<line x1="208" y1="160" x2="184" y2="174" style="stroke:rgb(100,0,0);stroke-width:1" />
<line x1="184" y1="174" x2="184" y2="174" style="stroke:rgb(100,0,0);stroke-width:1" />
<line x1="226" y1="126" x2="246" y2="137" style="stroke:rgb(100,0,0);stroke-width:1" />
<line x1="246" y1="137" x2="191" y2="151" style="stroke:rgb(100,0,0);stroke-width:1" />
<line x1="191" y1="151" x2="226" y2="126" style="stroke:rgb(100,0,0);stroke-width:1" />
<line x1="191" y1="151" x2="246" y2="137" style="stroke:rgb(100,0,0);stroke-width:1" />
<line x1="246" y1="137" x2="208" y2="160" style="stroke:rgb(100,0,0);stroke-width:1" />
<line x1="208" y1="160" x2="191" y2="151" style="stroke:rgb(100,0,0);stroke-width:1" />
<line x1="226" y1="126" x2="260" y2="108" style="stroke:rgb(100,0,0);stroke-width:1" />
<line x1="260" y1="108" x2="246" y2="137" style="stroke:rgb(100,0,0);stroke-width:1" />
<line x1="246" y1="137" x2="226" y2="126" style="stroke:rgb(100,0,0);stroke-width:1" />
<line x1="246" y1="137" x2="260" y2="108" style="stroke:rgb(100,0,0);stroke-width:1" />
<line x1="260" y1="108" x2="277" y2="119" style="stroke:rgb(100,0,0);stroke-width:1" />
<line x1="277" y1="119" x2="246" y2="137" style="stroke:rgb(100,0,0);stroke-width:1" />
<line x1="224" y1="169" x2="184" y2="174" style="stroke:rgb(100,0,0);stroke-width:1" />
<line x1="184" y1="174" x2="208" y2="160" style="stroke:rgb(100,0,0);stroke-width:1" />
<line x1="208" y1="160" x2="224" y2="169" style="stroke:rgb(100,0,0);stroke-width:1" />
<line x1="184" y1="174" x2="208" y2="160" style="stroke:rgb(100,0,0);stroke-width:1" />
<line x1="208" y1="160" x2="184" y2="174" style="stroke:rgb(100,0,0);stroke-width:1" />
<line x1="184" y1="174" x2="184" y2="174" style="stroke:rgb(100,0,0);stroke-width:1" />
<line x1="208" y1="160" x2="246" y2="137" style="stroke:rgb(100,0,0);stroke-width:1" />
<line x1="246" y1="137" x2="224" y2="169" style="stroke:rgb(100,0,0);stroke-width:1" />
<line x1="224" y1="169" x2="208" y2="160" style="stroke:rgb(100,0,0);stroke-width:1" />
<line x1="224" y1="169" x2="246" y2="137" style="stroke:rgb(100,0,0);stroke-width:1" />
<line x1="246" y1="137" x2="265" y2="148" style="stroke:rgb(100,0,0);stroke-width:1" />
<line x1="265" y1="148" x2="224" y2="169" style="stroke:rgb(100,0,0);stroke-width:1" />
<line x1="277" y1="119" x2="293" y2="129" style="stroke:rgb(100,0,0);stroke-width:1" />
<line x1="293" y1="129" x2="246" y2="137" style="stroke:rgb(100,0,0);stroke-width:1" />
<line x1="246" y1="137" x2="277" y2="119" style="stroke:rgb(100,0,0);stroke-width:1" />
<line x1="246" y1="137" x2="293" y2="129" style="stroke:rgb(100,0,0);stroke-width:1" />
<line x1="293" y1="129" x2="265" y2="148" style="stroke:rgb(100,0,0);stroke-width:1" />
<line x1="265" y1="148" x2="246" y2="137" style="stroke:rgb(100,0,0);stroke-width:1" />
<line x1="184" y1="174" x2="224" y2="169" style="stroke:rgb(100,0,0);stroke-width:1" />
<line x1="224" y1="169" x2="184" y2="169" style="stroke:rgb(100,0,0);stroke-width:1" />
<line x1="184" y1="169" x2="184" y2="174" style="stroke:rgb(100,0,0);stroke-width:1" />
<line x1="184" y1="169" x2="224" y2="169" style="stroke:rgb(100,0,0);stroke-width:1" />
<line x1="224" y1="169" x2="222" y2="154" style="stroke:rgb(100,0,0);stroke-width:1" />
<line x1="222" y1="154" x2="184" y2="169" style="stroke:rgb(100,0,0);stroke-width:1" />
<line x1="265" y1="148" x2="263" y2="133" style="stroke:rgb(100,0,0);stroke-width:1" />
<line x1="263" y1="133" x2="224" y2="169" style="stroke:rgb(100,0,0);stroke-width:1" />
<line x1="224" y1="169" x2="265" y2="148" style="stroke:rgb(100,0,0);stroke-width:1" />
<line x1="224" y1="169" x2="263" y2="133" style="stroke:rgb(100,0,0);stroke-width:1" />
<line x1="263" y1="133" x2="222" y2="154" style="stroke:rgb(100,0,0);stroke-width:1" />
<line x1="222" y1="154" x2="224" y2="169" style="stroke:rgb(100,0,0);stroke-width:1" />
<line x1="265" y1="148" x2="293" y2="129" style="stroke:rgb(100,0,0);stroke-width:1" />
<line x1="293" y1="129" x2="263" y2="133" style="stroke:rgb(100,0,0);stroke-width:1" />
<line x1="263" y1="133" x2="265" y2="148" style="stroke:rgb(100,0,0);stroke-width:1" />
<line x1="263" y1="133" x2="293" y2="129" style="stroke:rgb(100,0,0);stroke-width:1" />
<line x1="293" y1="129" x2="289" y2="115" style="stroke:rgb(100,0,0);stroke-width:1" />
<line x1="289" y1="115" x2="263" y2="133" style="stroke:rgb(100,0,0);stroke-width:1" />
<line x1="184" y1="169" x2="222" y2="154" style="stroke:rgb(100,0,0);stroke-width:1" />
<line x1="222" y1="154" x2="185" y2="169" style="stroke:rgb(100,0,0);stroke-width:1" />
<line x1="185" y1="169" x2="184" y2="169" style="stroke:rgb(100,0,0);stroke-width:1" />
<line x1="222" y1="154" x2="208" y2="142" style="stroke:rgb(100,0,0);stroke-width:1" />
<line x1="208" y1="142" x2="185" y2="169" style="stroke:rgb(100,0,0);stroke-width:1" />
<line x1="185" y1="169" x2="222" y2="154" style="stroke:rgb(100,0,0);stroke-width:1" />
<line x1="263" y1="133" x2="245" y2="118" style="stroke:rgb(100,0,0);stroke-width:1" />
<line x1="245" y1="118" x2="222" y2="154" style="stroke:rgb(100,0,0);stroke-width:1" />
<line x1="222" y1="154" x2="263" y2="133" style="stroke:rgb(100,0,0);stroke-width:1" />
<line x1="222" y1="154" x2="245" y2="118" style="stroke:rgb(100,0,0);stroke-width:1" />
<line x1="245" y1="118" x2="208" y2="142" style="stroke:rgb(100,0,0);stroke-width:1" />
<line x1="208" y1="142" x2="222" y2="154" style="stroke:rgb(100,0,0);stroke-width:1" />
<line x1="263" y1="133" x2="289" y2="115" style="stroke:rgb(100,0,0);stroke-width:1" />
<line x1="289" y1="115" x2="245" y2="118" style="stroke:rgb(100,0,0);stroke-width:1" />
<line x1="245" y1="118" x2="263" y2="133" style="stroke:rgb(100,0,0);stroke-width:1" />
<line x1="245" y1="118" x2="289" y2="115" style="stroke:rgb(100,0,0);stroke-width:1" />
<line x1="289" y1="115" x2="273" y2="102" style="stroke:rgb(100,0,0);stroke-width:1" />
<line x1="273" y1="102" x2="245" y2="118" style="stroke:rgb(100,0,0);stroke-width:1" />
<line x1="273" y1="102" x2="289" y2="115" style="stroke:rgb(100,0,0);stroke-width:1" />
<line x1="289" y1="115" x2="274" y2="105" style="stroke:rgb(100,0,0);stroke-width:1" />
<line x1="274" y1="105" x2="273" y2="102" style="stroke:rgb(100,0,0);stroke-width:1" />
<line x1="273" y1="102" x2="274" y2="105" style="stroke:rgb(100,0,0);stroke-width:1" />
<line x1="274" y1="105" x2="260" y2="96" style="stroke:rgb(100,0,0);stroke-width:1" />
<line x1="260" y1="96" x2="273" y2="102" style="stroke:rgb(100,0,0);stroke-width:1" />
<line x1="274" y1="105" x2="289" y2="115" style="stroke:rgb(100,0,0);stroke-width:1" />
<line x1="289" y1="115" x2="277" y2="119" style="stroke:rgb(100,0,0);stroke-width:1" />
<line x1="277" y1="119" x2="274" y2="105" style="stroke:rgb(100,0,0);stroke-width:1" />
<line x1="277" y1="119" x2="289" y2="115" style="stroke:rgb(100,0,0);stroke-width:1" />
<line x1="289" y1="115" x2="293" y2="129" style="stroke:rgb(100,0,0);stroke-width:1" />
<line x1="293" y1="129" x2="277" y2="119" style="stroke:rgb(100,0,0);stroke-width:1" />
<line x1="274" y1="105" x2="277" y2="119" style="stroke:rgb(100,0,0);stroke-width:1" />
<line x1="277" y1="119" x2="260" y2="96" style="stroke:rgb(100,0,0);stroke-width:1" />
<line x1="260" y1="96" x2="274" y2="105" style="stroke:rgb(100,0,0);stroke-width:1" />
<line x1="260" y1="96" x2="277" y2="119" style="stroke:rgb(100,0,0);stroke-width:1" />
<line x1="277" y1="119" x2="260" y2="108" style="stroke:rgb(100,0,0);stroke-width:1" />
<line x1="260" y1="108" x2="260" y2="96" style="stroke:rgb(100,0,0);stroke-width:1" />
<line x1="185" y1="169" x2="185" y2="169" style="stroke:rgb(100,0,0);stroke-width:1" />
<line x1="185" y1="169" x2="184" y2="169" style="stroke:rgb(100,0,0);stroke-width:1" />
<line x1="184" y1="169" x2="185" y2="169" style="stroke:rgb(100,0,0);stroke-width:1" />
<line x1="185" y1="169" x2="185" y2="169" style="stroke:rgb(100,0,0);stroke-width:1" />
<line x1="185" y1="169" x2="185" y2="169" style="stroke:rgb(100,0,0);stroke-width:1" />
<line x1="185" y1="169" x2="185" y2="169" style="stroke:rgb(100,0,0);stroke-width:1" />
<line x1="184" y1="169" x2="185" y2="169" style="stroke:rgb(100,0,0);stroke-width:1" />
<line x1="185" y1="169" x2="184" y2="174" style="stroke:rgb(100,0,0);stroke-width:1" />
<line x1="184" y1="174" x2="184" y2="169" style="stroke:rgb(100,0,0);stroke-width:1" />
<line x1="184" y1="174" x2="185" y2="169" style="stroke:rgb(100,0,0);stroke-width:1" />
<line x1="185" y1="169" x2="184" y2="174" style="stroke:rgb(100,0,0);stroke-width:1" />
<line x1="184" y1="174" x2="184" y2="174" style="stroke:rgb(100,0,0);stroke-width:1" />
<line x1="185" y1="169" x2="185" y2="169" style="stroke:rgb(100,0,0);stroke-width:1" />
<line x1="185" y1="169" x2="184" y2="174" style="stroke:rgb(100,0,0);stroke-width:1" />
<line x1="184" y1="174" x2="185" y2="169" style="stroke:rgb(100,0,0);stroke-width:1" />
<line x1="184" y1="174" x2="185" y2="169" style="stroke:rgb(100,0,0);stroke-width:1" />
<line x1="185" y1="169" x2="184" y2="174" style="stroke:rgb(100,0,0);stroke-width:1" />
<line x1="184" y1="174" x2="184" y2="174" style="stroke:rgb(100,0,0);stroke-width:1" />
<line x1="237" y1="145" x2="236" y2="249" style="stroke:rgb(100,0,0);stroke-width:1" />
<line x1="236" y1="249" x2="284" y2="118" style="stroke:rgb(100,0,0);stroke-width:1" />
<line x1="284" y1="118" x2="237" y2="145" style="stroke:rgb(100,0,0);stroke-width:1" />
<line x1="185" y1="177" x2="235" y2="248" style="stroke:rgb(100,0,0);stroke-width:1" />
<line x1="235" y1="248" x2="211" y2="161" style="stroke:rgb(100,0,0);stroke-width:1" />
<line x1="211" y1="161" x2="185" y2="177" style="stroke:rgb(100,0,0);stroke-width:1" />
<line x1="233" y1="247" x2="234" y2="149" style="stroke:rgb(100,0,0);stroke-width:1" />
<line x1="234" y1="149" x2="209" y2="163" style="stroke:rgb(100,0,0);stroke-width:1" />
<line x1="209" y1="163" x2="233" y2="247" style="stroke:rgb(100,0,0);stroke-width:1" />
</svg>
