<svg version="1.1" xmlns:xlink="http://www.w3.org/1999/xlink" xmlns="http://www.w3.org/2000/svg" width="512" height="512">
<line x1="185" y1="342" x2="185" y2="342" style="stroke:rgb(100,0,0);stroke-width:1" />
<line x1="185" y1="342" x2="193" y2="373" style="stroke:rgb(100,0,0);stroke-width:1" />
<line x1="193" y1="373" x2="185" y2="342" style="stroke:rgb(100,0,0);stroke-width:1" />
<line x1="185" y1="342" x2="208" y2="369" style="stroke:rgb(100,0,0);stroke-width:1" />
<line x1="208" y1="369" x2="193" y2="373" style="stroke:rgb(100,0,0);stroke-width:1" />
<line x1="193" y1="373" x2="185" y2="342" style="stroke:rgb(100,0,0);stroke-width:1" />
<line x1="208" y1="369" x2="245" y2="393" style="stroke:rgb(100,0,0);stroke-width:1" />
<line x1="245" y1="393" x2="193" y2="373" style="stroke:rgb(100,0,0);stroke-width:1" />
<line x1="193" y1="373" x2="208" y2="369" style="stroke:rgb(100,0,0);stroke-width:1" />
<line x1="193" y1="373" x2="245" y2="393" style="stroke:rgb(100,0,0);stroke-width:1" />
<line x1="245" y1="393" x2="228" y2="399" style="stroke:rgb(100,0,0);stroke-width:1" />
<line x1="228" y1="399" x2="193" y2="373" style="stroke:rgb(100,0,0);stroke-width:1" />
<line x1="273" y1="409" x2="260" y2="415" style="stroke:rgb(100,0,0);stroke-width:1" />
<line x1="260" y1="415" x2="245" y2="393" style="stroke:rgb(100,0,0);stroke-width:1" />
<line x1="245" y1="393" x2="273" y2="409" style="stroke:rgb(100,0,0);stroke-width:1" />
<line x1="245" y1="393" x2="260" y2="415" style="stroke:rgb(100,0,0);stroke-width:1" />
<line x1="260" y1="415" x2="228" y2="399" style="stroke:rgb(100,0,0);stroke-width:1" />
<line x1="228" y1="399" x2="245" y2="393" style="stroke:rgb(100,0,0);stroke-width:1" />
<line x1="193" y1="373" x2="191" y2="360" style="stroke:rgb(100,0,0);stroke-width:1" />
<line x1="191" y1="360" x2="185" y2="342" style="stroke:rgb(100,0,0);stroke-width:1" />
<line x1="185" y1="342" x2="193" y2="373" style="stroke:rgb(100,0,0);stroke-width:1" />
<line x1="185" y1="342" x2="191" y2="360" style="stroke:rgb(100,0,0);stroke-width:1" />
<line x1="191" y1="360" x2="184" y2="337" style="stroke:rgb(100,0,0);stroke-width:1" />
<line x1="184" y1="337" x2="185" y2="342" style="stroke:rgb(100,0,0);stroke-width:1" />
<line x1="193" y1="373" x2="228" y2="399" style="stroke:rgb(100,0,0);stroke-width:1" />
<line x1="228" y1="399" x2="191" y2="360" style="stroke:rgb(100,0,0);stroke-width:1" />
<line x1="191" y1="360" x2="193" y2="373" style="stroke:rgb(100,0,0);stroke-width:1" />
<line x1="191" y1="360" x2="228" y2="399" style="stroke:rgb(100,0,0);stroke-width:1" />
<line x1="228" y1="399" x2="226" y2="385" style="stroke:rgb(100,0,0);stroke-width:1" />
<line x1="226" y1="385" x2="191" y2="360" style="stroke:rgb(100,0,0);stroke-width:1" />
<line x1="260" y1="415" x2="260" y2="403" style="stroke:rgb(100,0,0);stroke-width:1" />
<line x1="260" y1="403" x2="228" y2="399" style="stroke:rgb(100,0,0);stroke-width:1" />
<line x1="228" y1="399" x2="260" y2="415" style="stroke:rgb(100,0,0);stroke-width:1" />
<line x1="228" y1="399" x2="260" y2="403" style="stroke:rgb(100,0,0);stroke-width:1" />
<line x1="260" y1="403" x2="226" y2="385" style="stroke:rgb(100,0,0);stroke-width:1" />
<line x1="226" y1="385" x2="228" y2="399" style="stroke:rgb(100,0,0);stroke-width:1" />
<line x1="191" y1="360" x2="208" y2="351" style="stroke:rgb(100,0,0);stroke-width:1" />
<line x1="208" y1="351" x2="184" y2="337" style="stroke:rgb(100,0,0);stroke-width:1" />
<line x1="184" y1="337" x2="191" y2="360" style="stroke:rgb(100,0,0);stroke-width:1" />
<line x1="184" y1="337" x2="208" y2="351" style="stroke:rgb(100,0,0);stroke-width:1" />
<line x1="208" y1="351" x2="184" y2="337" style="stroke:rgb(100,0,0);stroke-width:1" />
<line x1="184" y1="337" x2="184" y2="337" style="stroke:rgb(100,0,0);stroke-width:1" />
<line x1="226" y1="385" x2="246" y2="374" style="stroke:rgb(100,0,0);stroke-width:1" />
<line x1="246" y1="374" x2="191" y2="360" style="stroke:rgb(100,0,0);stroke-width:1" />
<line x1="191" y1="360" x2="226" y2="385" style="stroke:rgb(100,0,0);stroke-width:1" />
<line x1="191" y1="360" x2="246" y2="374" style="stroke:rgb(100,0,0);stroke-width:1" />
<line x1="246" y1="374" x2="208" y2="351" style="stroke:rgb(100,0,0);stroke-width:1" />
<line x1="208" y1="351" x2="191" y2="360" style="stroke:rgb(100,0,0);stroke-width:1" />
<line x1="226" y1="385" x2="260" y2="403" style="stroke:rgb(100,0,0);stroke-width:1" />
<line x1="260" y1="403" x2="246" y2="374" style="stroke:rgb(100,0,0);stroke-width:1" />
<line x1="246" y1="374" x2="226" y2="385" style="stroke:rgb(100,0,0);stroke-width:1" />
<line x1="246" y1="374" x2="260" y2="403" style="stroke:rgb(100,0,0);stroke-width:1" />
<line x1="260" y1="403" x2="277" y2="392" style="stroke:rgb(100,0,0);stroke-width:1" />
<line x1="277" y1="392" x2="246" y2="374" style="stroke:rgb(100,0,0);stroke-width:1" />
<line x1="224" y1="342" x2="184" y2="337" style="stroke:rgb(100,0,0);stroke-width:1" />
<line x1="184" y1="337" x2="208" y2="351" style="stroke:rgb(100,0,0);stroke-width:1" />
<line x1="208" y1="351" x2="224" y2="342" style="stroke:rgb(100,0,0);stroke-width:1" />
<line x1="184" y1="337" x2="208" y2="351" style="stroke:rgb(100,0,0);stroke-width:1" />
<line x1="208" y1="351" x2="184" y2="337" style="stroke:rgb(100,0,0);stroke-width:1" />
<line x1="184" y1="337" x2="184" y2="337" style="stroke:rgb(100,0,0);stroke-width:1" />
<line x1="208" y1="351" x2="246" y2="374" style="stroke:rgb(100,0,0);stroke-width:1" />
<line x1="246" y1="374" x2="224" y2="342" style="stroke:rgb(100,0,0);stroke-width:1" />
<line x1="224" y1="342" x2="208" y2="351" style="stroke:rgb(100,0,0);stroke-width:1" />
<line x1="224" y1="342" x2="246" y2="374" style="stroke:rgb(100,0,0);stroke-width:1" />
<line x1="246" y1="374" x2="265" y2="363" style="stroke:rgb(100,0,0);stroke-width:1" />
<line x1="265" y1="363" x2="224" y2="342" style="stroke:rgb(100,0,0);stroke-width:1" />
<line x1="277" y1="392" x2="293" y2="382" style="stroke:rgb(100,0,0);stroke-width:1" />
<line x1="293" y1="382" x2="246" y2="374" style="stroke:rgb(100,0,0);stroke-width:1" />
<line x1="246" y1="374" x2="277" y2="392" style="stroke:rgb(100,0,0);stroke-width:1" />
<line x1="246" y1="374" x2="293" y2="382" style="stroke:rgb(100,0,0);stroke-width:1" />
<line x1="293" y1="382" x2="265" y2="363" style="stroke:rgb(100,0,0);stroke-width:1" />
<line x1="265" y1="363" x2="246" y2="374" style="stroke:rgb(100,0,0);stroke-width:1" />
<line x1="184" y1="337" x2="224" y2="342" style="stroke:rgb(100,0,0);stroke-width:1" />
<line x1="224" y1="342" x2="184" y2="342" style="stroke:rgb(100,0,0);stroke-width:1" />
<line x1="184" y1="342" x2="184" y2="337" style="stroke:rgb(100,0,0);stroke-width:1" />
<line x1="184" y1="342" x2="224" y2="342" style="stroke:rgb(100,0,0);stroke-width:1" />
<line x1="224" y1="342" x2="222" y2="357" style="stroke:rgb(100,0,0);stroke-width:1" />
<line x1="222" y1="357" x2="184" y2="342" style="stroke:rgb(100,0,0);stroke-width:1" />
<line x1="265" y1="363" x2="263" y2="378" style="stroke:rgb(100,0,0);stroke-width:1" />
<line x1="263" y1="378" x2="224" y2="342" style="stroke:rgb(100,0,0);stroke-width:1" />
<line x1="224" y1="342" x2="265" y2="363" style="stroke:rgb(100,0,0);stroke-width:1" />
<line x1="224" y1="342" x2="263" y2="378" style="stroke:rgb(100,0,0);stroke-width:1" />
<line x1="263" y1="378" x2="222" y2="357" style="stroke:rgb(100,0,0);stroke-width:1" />
<line x1="222" y1="357" x2="224" y2="342" style="stroke:rgb(100,0,0);stroke-width:1" />
<line x1="265" y1="363" x2="293" y2="382" style="stroke:rgb(100,0,0);stroke-width:1" />
<line x1="293" y1="382" x2="263" y2="378" style="stroke:rgb(100,0,0);stroke-width:1" />
<line x1="263" y1="378" x2="265" y2="363" style="stroke:rgb(100,0,0);stroke-width:1" />
<line x1="263" y1="378" x2="293" y2="382" style="stroke:rgb(100,0,0);stroke-width:1" />
<line x1="293" y1="382" x2="289" y2="396" style="stroke:rgb(100,0,0);stroke-width:1" />
<line x1="289" y1="396" x2="263" y2="378" style="stroke:rgb(100,0,0);stroke-width:1" />
<line x1="184" y1="342" x2="222" y2="357" style="stroke:rgb(100,0,0);stroke-width:1" />
<line x1="222" y1="357" x2="185" y2="342" style="stroke:rgb(100,0,0);stroke-width:1" />
<line x1="185" y1="342" x2="184" y2="342" style="stroke:rgb(100,0,0);stroke-width:1" />
<line x1="222" y1="357" x2="208" y2="369" style="stroke:rgb(100,0,0);stroke-width:1" />
<line x1="208" y1="369" x2="185" y2="342" style="stroke:rgb(100,0,0);stroke-width:1" />
<line x1="185" y1="342" x2="222" y2="357" style="stroke:rgb(100,0,0);stroke-width:1" />
<line x1="263" y1="378" x2="245" y2="393" style="stroke:rgb(100,0,0);stroke-width:1" />
<line x1="245" y1="393" x2="222" y2="357" style="stroke:rgb(100,0,0);stroke-width:1" />
<line x1="222" y1="357" x2="263" y2="378" style="stroke:rgb(100,0,0);stroke-width:1" />
<line x1="222" y1="357" x2="245" y2="393" style="stroke:rgb(100,0,0);stroke-width:1" />
<line x1="245" y1="393" x2="208" y2="369" style="stroke:rgb(100,0,0);stroke-width:1" />
<line x1="208" y1="369" x2="222" y2="357" style="stroke:rgb(100,0,0);stroke-width:1" />
<line x1="263" y1="378" x2="289" y2="396" style="stroke:rgb(100,0,0);stroke-width:1" />
<line x1="289" y1="396" x2="245" y2="393" style="stroke:rgb(100,0,0);stroke-width:1" />
<line x1="245" y1="393" x2="263" y2="378" style="stroke:rgb(100,0,0);stroke-width:1" />
<line x1="245" y1="393" x2="289" y2="396" style="stroke:rgb(100,0,0);stroke-width:1" />
<line x1="289" y1="396" x2="273" y2="409" style="stroke:rgb(100,0,0);stroke-width:1" />
<line x1="273" y1="409" x2="245" y2="393" style="stroke:rgb(100,0,0);stroke-width:1" />
<line x1="273" y1="409" x2="289" y2="396" style="stroke:rgb(100,0,0);stroke-width:1" />
<line x1="289" y1="396" x2="274" y2="406" style="stroke:rgb(100,0,0);stroke-width:1" />
<line x1="274" y1="406" x2="273" y2="409" style="stroke:rgb(100,0,0);stroke-width:1" />
<line x1="273" y1="409" x2="274" y2="406" style="stroke:rgb(100,0,0);stroke-width:1" />
<line x1="274" y1="406" x2="260" y2="415" style="stroke:rgb(100,0,0);stroke-width:1" />
<line x1="260" y1="415" x2="273" y2="409" style="stroke:rgb(100,0,0);stroke-width:1" />
<line x1="274" y1="406" x2="289" y2="396" style="stroke:rgb(100,0,0);stroke-width:1" />
<line x1="289" y1="396" x2="277" y2="392" style="stroke:rgb(100,0,0);stroke-width:1" />
<line x1="277" y1="392" x2="274" y2="406" style="stroke:rgb(100,0,0);stroke-width:1" />
<line x1="277" y1="392" x2="289" y2="396" style="stroke:rgb(100,0,0);stroke-width:1" />
<line x1="289" y1="396" x2="293" y2="382" style="stroke:rgb(100,0,0);stroke-width:1" />
<line x1="293" y1="382" x2="277" y2="392" style="stroke:rgb(100,0,0);stroke-width:1" />
<line x1="274" y1="406" x2="277" y2="392" style="stroke:rgb(100,0,0);stroke-width:1" />
<line x1="277" y1="392" x2="260" y2="415" style="stroke:rgb(100,0,0);stroke-width:1" />
<line x1="260" y1="415" x2="274" y2="406" style="stroke:rgb(100,0,0);stroke-width:1" />
<line x1="260" y1="415" x2="277" y2="392" style="stroke:rgb(100,0,0);stroke-width:1" />
<line x1="277" y1="392" x2="260" y2="403" style="stroke:rgb(100,0,0);stroke-width:1" />
<line x1="260" y1="403" x2="260" y2="415" style="stroke:rgb(100,0,0);stroke-width:1" />
<line x1="185" y1="342" x2="185" y2="342" style="stroke:rgb(100,0,0);stroke-width:1" />
<line x1="185" y1="342" x2="184" y2="342" style="stroke:rgb(100,0,0);stroke-width:1" />
<line x1="184" y1="342" x2="185" y2="342" style="stroke:rgb(100,0,0);stroke-width:1" />
<line x1="185" y1="342" x2="185" y2="342" style="stroke:rgb(100,0,0);stroke-width:1" />
<line x1="185" y1="342" x2="185" y2="342" style="stroke:rgb(100,0,0);stroke-width:1" />
<line x1="185" y1="342" x2="185" y2="342" style="stroke:rgb(100,0,0);stroke-width:1" />
<line x1="184" y1="342" x2="185" y2="342" style="stroke:rgb(100,0,0);stroke-width:1" />
<line x1="185" y1="342" x2="184" y2="337" style="stroke:rgb(100,0,0);stroke-width:1" />
<line x1="184" y1="337" x2="184" y2="342" style="stroke:rgb(100,0,0);stroke-width:1" />
<line x1="184" y1="337" x2="185" y2="342" style="stroke:rgb(100,0,0);stroke-width:1" />
<line x1="185" y1="342" x2="184" y2="337" style="stroke:rgb(100,0,0);stroke-width:1" />
<line x1="184" y1="337" x2="184" y2="337" style="stroke:rgb(100,0,0);stroke-width:1" />
<line x1="185" y1="342" x2="185" y2="342" style="stroke:rgb(100,0,0);stroke-width:1" />
<line x1="185" y1="342" x2="184" y2="337" style="stroke:rgb(100,0,0);stroke-width:1" />
<line x1="184" y1="337" x2="185" y2="342" style="stroke:rgb(100,0,0);stroke-width:1" />
<line x1="184" y1="337" x2="185" y2="342" style="stroke:rgb(100,0,0);stroke-width:1" />
<line x1="185" y1="342" x2="184" y2="337" style="stroke:rgb(100,0,0);stroke-width:1" />
<line x1="184" y1="337" x2="184" y2="337" style="stroke:rgb(100,0,0);stroke-width:1" />
<line x1="237" y1="366" x2="236" y2="262" style="stroke:rgb(100,0,0);stroke-width:1" />
<line x1="236" y1="262" x2="284" y2="393" style="stroke:rgb(100,0,0);stroke-width:1" />
<line x1="284" y1="393" x2="237" y2="366" style="stroke:rgb(100,0,0);stroke-width:1" />
<line x1="185" y1="334" x2="235" y2="263" style="stroke:rgb(100,0,0);stroke-width:1" />
<line x1="235" y1="263" x2="211" y2="350" style="stroke:rgb(100,0,0);stroke-width:1" />
<line x1="211" y1="350" x2="185" y2="334" style="stroke:rgb(100,0,0);stroke-width:1" />
<line x1="233" y1="264" x2="234" y2="362" style="stroke:rgb(100,0,0);stroke-width:1" />
<line x1="234" y1="362" x2="209" y2="348" style="stroke:rgb(100,0,0);stroke-width:1" />
<line x1="209" y1="348" x2="233" y2="264" style="stroke:rgb(100,0,0);stroke-width:1" />
</svg>
